<svg width="70" height="62" viewBox="0 0 70 62" fill="none" xmlns="http://www.w3.org/2000/svg">
<path d="M44.7108 1.58579C44.3357 1.21071 43.827 1 43.2966 1H26.2034C25.673 1 25.1643 1.21071 24.7892 1.58579L18.4608 7.91421C18.0857 8.28929 17.577 8.5 17.0466 8.5H3C1.89543 8.5 1 9.39543 1 10.5L1 59C1 60.1046 1.89543 61 3 61H66.5C67.6046 61 68.5 60.1046 68.5 59V10.5C68.5 9.39543 67.6046 8.5 66.5 8.5H52.4534C51.923 8.5 51.4143 8.28929 51.0392 7.91421L44.7108 1.58579Z" stroke="black" stroke-width="2" stroke-linecap="round" stroke-linejoin="round"/>
<path fill-rule="evenodd" clip-rule="evenodd" d="M34.75 49.75C43.0343 49.75 49.75 43.0343 49.75 34.75C49.75 26.4657 43.0343 19.75 34.75 19.75C26.4657 19.75 19.75 26.4657 19.75 34.75C19.75 43.0343 26.4657 49.75 34.75 49.75Z" stroke="black" stroke-width="2" stroke-linecap="round" stroke-linejoin="round"/>
</svg>
