<svg width="130" height="130" viewBox="0 0 130 130" fill="none" xmlns="http://www.w3.org/2000/svg">
<path d="M75.833 92.0835H75.8223V92.096H75.833V92.0835Z" stroke="#17191F" stroke-width="4" stroke-linecap="round" stroke-linejoin="round"/>
<path d="M48.75 81.25H48.7393V81.2625H48.75V81.25Z" stroke="#17191F" stroke-width="4" stroke-linecap="round" stroke-linejoin="round"/>
<path d="M70.417 65H70.4063V65.0125H70.417V65Z" stroke="#17191F" stroke-width="4" stroke-linecap="round" stroke-linejoin="round"/>
<path d="M43.333 54.1665H43.3223V54.179H43.333V54.1665Z" stroke="#17191F" stroke-width="4" stroke-linecap="round" stroke-linejoin="round"/>
<path d="M113.75 37.9165H113.739V37.929H113.75V37.9165Z" stroke="#17191F" stroke-width="4" stroke-linecap="round" stroke-linejoin="round"/>
<path d="M86.667 16.25H86.6563V16.2625H86.667V16.25Z" stroke="#17191F" stroke-width="4" stroke-linecap="round" stroke-linejoin="round"/>
<path d="M108.333 16.25H108.322V16.2625H108.333V16.25Z" stroke="#17191F" stroke-width="4" stroke-linecap="round" stroke-linejoin="round"/>
<path d="M65.0794 113.75C91.9472 113.72 113.72 91.9112 113.75 64.9997C111.834 65.5419 109.852 65.8191 107.861 65.8236C101.273 65.872 95.0842 62.6685 91.3128 57.2583C87.9411 52.3813 87.2287 46.1382 89.4147 40.6249C88.0169 40.8746 86.6001 41.0018 85.1803 41.0051C78.8684 41.0523 72.8776 38.2215 68.9 33.3124C65.0076 28.5483 63.4857 22.2716 64.763 16.25C37.8829 16.3375 16.1632 38.2344 16.2503 65.1582C16.3379 92.0819 38.1993 113.837 65.0794 113.75Z" stroke="#17191F" stroke-width="3" stroke-linecap="round" stroke-linejoin="round"/>
</svg>
