<svg width="130" height="130" viewBox="0 0 130 130" fill="none" xmlns="http://www.w3.org/2000/svg">
<path d="M102.917 65H70.4167C67.4251 65 65 67.4251 65 70.4167V108.333H102.917C105.908 108.333 108.333 105.908 108.333 102.917V70.4167C108.333 67.4251 105.908 65 102.917 65Z" stroke="#17191F" stroke-width="3" stroke-linecap="round" stroke-linejoin="round"/>
<path d="M59.5837 65H27.0837C24.0921 65 21.667 67.4251 21.667 70.4167V102.917C21.667 105.908 24.0921 108.333 27.0837 108.333H65.0003V70.4167C65.0003 67.4251 62.5752 65 59.5837 65Z" stroke="#17191F" stroke-width="3" stroke-linecap="round" stroke-linejoin="round"/>
<path d="M108.333 43.3335H70.4167C67.4251 43.3335 65 45.7586 65 48.7502V59.5835C65 62.575 67.4251 65.0002 70.4167 65.0002H108.333C111.325 65.0002 113.75 62.575 113.75 59.5835V48.7502C113.75 45.7586 111.325 43.3335 108.333 43.3335Z" stroke="#17191F" stroke-width="3" stroke-linecap="round" stroke-linejoin="round"/>
<path d="M59.5833 43.3335H21.6667C18.6751 43.3335 16.25 45.7586 16.25 48.7502V59.5835C16.25 62.575 18.6751 65.0002 21.6667 65.0002H59.5833C62.5749 65.0002 65 62.575 65 59.5835V48.7502C65 45.7586 62.5749 43.3335 59.5833 43.3335Z" stroke="#17191F" stroke-width="3" stroke-linecap="round" stroke-linejoin="round"/>
<path d="M65 43.3333V29.7917C65 22.3128 71.0628 16.25 78.5417 16.25C86.0205 16.25 92.0833 22.3128 92.0833 29.7917C92.0833 37.2705 86.0205 43.3333 78.5417 43.3333H65Z" stroke="#17191F" stroke-width="3" stroke-linecap="round" stroke-linejoin="round"/>
<path d="M65.0003 43.3333V29.7917C65.0003 22.3128 58.9375 16.25 51.4587 16.25C43.9798 16.25 37.917 22.3128 37.917 29.7917C37.917 37.2705 43.9798 43.3333 51.4587 43.3333H65.0003Z" stroke="#17191F" stroke-width="3" stroke-linecap="round" stroke-linejoin="round"/>
</svg>
