<svg width="130" height="130" viewBox="0 0 130 130" fill="none" xmlns="http://www.w3.org/2000/svg">
<path d="M106.232 29.3285C103.849 26.8994 101.021 24.9725 97.9076 23.6578C94.7943 22.3432 91.4574 21.6665 88.0874 21.6665C84.7175 21.6665 81.3805 22.3432 78.2672 23.6578C75.154 24.9725 72.3254 26.8994 69.943 29.3285L64.9988 34.3673L60.0545 29.3285C55.2423 24.4242 48.7156 21.669 41.9101 21.669C35.1046 21.669 28.5779 24.4242 23.7657 29.3285C18.9535 34.2327 16.25 40.8843 16.25 47.8199C16.25 54.7556 18.9535 61.4072 23.7657 66.3114L28.7099 71.3502L64.9988 108.333L101.288 71.3502L106.232 66.3114C108.615 63.8835 110.506 61.0008 111.796 57.8279C113.086 54.6551 113.75 51.2544 113.75 47.8199C113.75 44.3855 113.086 40.9848 111.796 37.8119C110.506 34.6391 108.615 31.7564 106.232 29.3285V29.3285Z" stroke="#17191F" stroke-width="3" stroke-linecap="round" stroke-linejoin="round"/>
</svg>
